<mxfile host="65bd71144e">
    <diagram id="IktD_yxIBG_wUPl_jsDj" name="Page-1">
        <mxGraphModel dx="576" dy="480" grid="1" gridSize="10" guides="1" tooltips="1" connect="1" arrows="1" fold="1" page="1" pageScale="1" pageWidth="850" pageHeight="1100" math="0" shadow="0">
            <root>
                <mxCell id="0"/>
                <mxCell id="1" parent="0"/>
                <mxCell id="2" value="BANKING SOFTWARE" style="rounded=0;whiteSpace=wrap;html=1;" vertex="1" parent="1">
                    <mxGeometry x="130" y="40" width="320" height="60" as="geometry"/>
                </mxCell>
                <mxCell id="3" value="LOGIN" style="rounded=1;whiteSpace=wrap;html=1;" vertex="1" parent="1">
                    <mxGeometry x="210" y="122" width="120" height="40" as="geometry"/>
                </mxCell>
                <mxCell id="4" value="CREATE ACCOUNT" style="rounded=1;whiteSpace=wrap;html=1;" vertex="1" parent="1">
                    <mxGeometry x="10" y="162" width="120" height="40" as="geometry"/>
                </mxCell>
                <mxCell id="5" value="CREDIT ACCOUNT" style="rounded=1;whiteSpace=wrap;html=1;" vertex="1" parent="1">
                    <mxGeometry x="12" y="238" width="120" height="40" as="geometry"/>
                </mxCell>
                <mxCell id="6" value="DEBIT ACCOUNT" style="rounded=1;whiteSpace=wrap;html=1;" vertex="1" parent="1">
                    <mxGeometry x="11" y="319" width="120" height="40" as="geometry"/>
                </mxCell>
                <mxCell id="7" value="TRANSFER MONEY" style="rounded=1;whiteSpace=wrap;html=1;" vertex="1" parent="1">
                    <mxGeometry x="397" y="161" width="120" height="40" as="geometry"/>
                </mxCell>
                <mxCell id="8" value="CHECK BALANCE" style="rounded=1;whiteSpace=wrap;html=1;" vertex="1" parent="1">
                    <mxGeometry x="401" y="241" width="120" height="40" as="geometry"/>
                </mxCell>
                <mxCell id="9" value="VIEW/PRINT TRANSACTIONS" style="rounded=1;whiteSpace=wrap;html=1;" vertex="1" parent="1">
                    <mxGeometry x="403" y="319" width="120" height="40" as="geometry"/>
                </mxCell>
                <mxCell id="10" value="LOGOUT" style="rounded=1;whiteSpace=wrap;html=1;" vertex="1" parent="1">
                    <mxGeometry x="212" y="363" width="120" height="40" as="geometry"/>
                </mxCell>
                <mxCell id="11" value="" style="triangle;whiteSpace=wrap;html=1;" vertex="1" parent="1">
                    <mxGeometry x="131" y="162" width="29" height="40" as="geometry"/>
                </mxCell>
                <mxCell id="12" value="" style="triangle;whiteSpace=wrap;html=1;" vertex="1" parent="1">
                    <mxGeometry x="132" y="240" width="29" height="40" as="geometry"/>
                </mxCell>
                <mxCell id="13" value="" style="triangle;whiteSpace=wrap;html=1;" vertex="1" parent="1">
                    <mxGeometry x="132" y="320" width="29" height="40" as="geometry"/>
                </mxCell>
                <mxCell id="14" value="" style="triangle;whiteSpace=wrap;html=1;" vertex="1" parent="1">
                    <mxGeometry x="518" y="162" width="29" height="40" as="geometry"/>
                </mxCell>
                <mxCell id="15" value="" style="triangle;whiteSpace=wrap;html=1;" vertex="1" parent="1">
                    <mxGeometry x="521" y="241" width="29" height="40" as="geometry"/>
                </mxCell>
                <mxCell id="16" value="" style="triangle;whiteSpace=wrap;html=1;" vertex="1" parent="1">
                    <mxGeometry x="523" y="321" width="29" height="40" as="geometry"/>
                </mxCell>
                <mxCell id="17" value="" style="triangle;whiteSpace=wrap;html=1;" vertex="1" parent="1">
                    <mxGeometry x="332" y="364" width="29" height="40" as="geometry"/>
                </mxCell>
                <mxCell id="18" value="" style="triangle;whiteSpace=wrap;html=1;" vertex="1" parent="1">
                    <mxGeometry x="331" y="122" width="29" height="40" as="geometry"/>
                </mxCell>
            </root>
        </mxGraphModel>
    </diagram>
</mxfile>